<?xml version="1.0" encoding="UTF-8"?>
<svg version="1.1" xmlns="http://www.w3.org/2000/svg" width="536" height="600">
<path d="M0 0 C0.7921562 5.67477023 1.19498266 11.23147027 1.31640625 16.95703125 C1.33723267 17.80639252 1.35805908 18.65575378 1.3795166 19.53085327 C1.44526801 22.29131639 1.50431896 25.05186768 1.5625 27.8125 C1.58367889 28.75421051 1.60485779 29.69592102 1.62667847 30.66616821 C2.03912749 49.11198954 2.11569854 67.55053298 2 86 C2.37125 85.525625 2.7425 85.05125 3.125 84.5625 C5.65397604 82.45501996 7.7559244 82.489186 11 82 C13.5922407 81.07107615 16.12126857 80.1052146 18.6640625 79.05859375 C20.13020559 78.46939422 21.59635151 77.88020172 23.0625 77.29101562 C25.35198707 76.36226608 27.64051079 75.43118292 29.92871094 74.49926758 C32.15075405 73.59671113 34.37598828 72.70239973 36.6015625 71.80859375 C37.28392975 71.52737167 37.966297 71.2461496 38.66934204 70.95640564 C42.06124799 69.59628071 44.28088215 69 48 69 C47.719172 70.98073365 47.42503386 72.95958448 47.125 74.9375 C46.88136719 76.59072266 46.88136719 76.59072266 46.6328125 78.27734375 C46.42398437 79.17582031 46.21515625 80.07429688 46 81 C45.34 81.33 44.68 81.66 44 82 C43.63719609 84.3559292 43.55650365 86.68648896 43.44140625 89.06640625 C42.85038655 92.99433362 41.47551131 96.31318908 40 100 C52.06432097 95.50084083 64.12501844 90.99671394 76.11279297 86.29663086 C79.26890147 85.05938425 82.42757596 83.84110666 85.60546875 82.66015625 C89.35877517 81.26012066 93.07946548 79.78364699 96.80078125 78.30078125 C98.02474609 77.81416016 99.24871094 77.32753906 100.50976562 76.82617188 C102.42429407 76.06495596 104.33814399 75.30220945 106.25024414 74.53491211 C108.11937924 73.78550257 109.99129332 73.04303586 111.86328125 72.30078125 C112.96969971 71.85903564 114.07611816 71.41729004 115.21606445 70.9621582 C118 70 118 70 121 70 C121.33 69.34 121.66 68.68 122 68 C123.73242188 67.27368164 123.73242188 67.27368164 125.96875 66.59765625 C130.88513528 65.04813783 135.6901196 63.28898542 140.5 61.4375 C141.30953125 61.13392578 142.1190625 60.83035156 142.953125 60.51757812 C143.72140625 60.22173828 144.4896875 59.92589844 145.28125 59.62109375 C145.97283203 59.3573999 146.66441406 59.09370605 147.37695312 58.82202148 C149.19686307 58.10282649 149.19686307 58.10282649 150 56 C152.33209545 55.65811349 154.66570278 55.32651501 157 55 C159.50521986 54.15272634 161.91627961 53.2712102 164.359375 52.27734375 C165.03043274 52.01240616 165.70149048 51.74746857 166.3928833 51.47450256 C168.51484681 50.63598672 170.63267853 49.78766225 172.75 48.9375 C174.88193203 48.08467907 177.01467299 47.2341649 179.14996338 46.38978577 C180.47309292 45.86630744 181.79427772 45.33787994 183.11322021 44.80393982 C185.91731426 43.69218894 187.95054718 43 191 43 C191.33 43.99 191.66 44.98 192 46 C191.39712158 46.56589844 190.79424316 47.13179687 190.1730957 47.71484375 C188.07692968 49.91910327 186.7080134 51.91832944 185.23046875 54.5625 C184.73708008 55.43672607 184.24369141 56.31095215 183.73535156 57.21166992 C183.22456055 58.13181885 182.71376953 59.05196777 182.1875 60 C181.12422924 61.89222574 180.06042956 63.78415437 178.99609375 65.67578125 C178.4841748 66.58924316 177.97225586 67.50270508 177.44482422 68.44384766 C175.07057602 72.64431717 172.59439964 76.78217774 170.109375 80.91796875 C168.84325185 82.90098784 168.84325185 82.90098784 169 85 C168.34 85 167.68 85 167 85 C166.67 86.98 166.34 88.96 166 91 C165.34 91 164.68 91 164 91 C163.40251953 92.21236328 163.40251953 92.21236328 162.79296875 93.44921875 C162.26316406 94.51785156 161.73335938 95.58648437 161.1875 96.6875 C160.66542969 97.74324219 160.14335937 98.79898438 159.60546875 99.88671875 C158.17093237 102.66853261 156.63142542 105.33081972 155 108 C154.67 108.66 154.34 109.32 154 110 C153.319375 110.99 152.63875 111.98 151.9375 113 C149.81915819 115.68480293 149.81915819 115.68480293 150 118 C149 119 148 120 147 121 C146.67 121.99 146.34 122.98 146 124 C144.99498033 127.015059 144.24108383 128.76622174 141.9375 131 C139.68126115 133.32902075 139.35237585 134.82861733 139 138 C138.34 138 137.68 138 137 138 C136.9175 138.7425 136.835 139.485 136.75 140.25 C135.83699883 143.59767095 134.43560409 144.56439591 132 147 C130.9588447 148.89222416 130.05897381 150.82875922 129.14453125 152.78515625 C127.88314665 155.22612918 126.39734371 157.38201117 124.8125 159.625 C122.44146192 163.07106793 121.21901828 165.72914357 121 170 C120.01 170.33 119.02 170.66 118 171 C116.30718907 173.77713308 116.30718907 173.77713308 114.8125 177.0625 C114.28269531 178.16722656 113.75289063 179.27195313 113.20703125 180.41015625 C112.60955078 181.69212891 112.60955078 181.69212891 112 183 C111.34 183 110.68 183 110 183 C109.731875 183.680625 109.46375 184.36125 109.1875 185.0625 C108.29552834 187.26895622 107.34852405 189.45329251 106.375 191.625 C104.81135156 194.85565536 104.81135156 194.85565536 105 198 C104.01 198.33 103.02 198.66 102 199 C102 200.32 102 201.64 102 203 C101.01 203.33 100.02 203.66 99 204 C98.67 204.99 98.34 205.98 98 207 C97 208.33333333 96 209.66666667 95 211 C92.52834049 214.53094216 90.9331421 216.8411297 91.1875 221.25 C91.75692201 223.17727451 92.36449796 225.09349387 93 227 C93.55036881 230.57739726 94.02164269 234.16232015 94.5 237.75 C94.90683589 241.00100176 94.90683589 241.00100176 96 244 C96.598125 243.67 97.19625 243.34 97.8125 243 C100 242 100 242 103 242 C103.33 241.34 103.66 240.68 104 240 C106.30981445 239.42163086 106.30981445 239.42163086 109.36328125 238.96484375 C110.47896484 238.79533203 111.59464844 238.62582031 112.74414062 238.45117188 C113.92169922 238.28166016 115.09925781 238.11214844 116.3125 237.9375 C117.44751953 237.76412109 118.58253906 237.59074219 119.75195312 237.41210938 C130.03207633 235.88152628 140.15810422 234.96367507 150.546875 234.89453125 C152.066407 234.87963358 153.58593825 234.86465884 155.10546875 234.84960938 C157.43815098 234.82672064 159.76926915 234.81260201 162.10205078 234.82495117 C173.84434014 235.09883072 173.84434014 235.09883072 183.66113281 229.28393555 C185 228 185 228 187 228 C187 227.34 187 226.68 187 226 C187.99 226 188.98 226 190 226 C189.85691406 227.22976562 189.85691406 227.22976562 189.7109375 228.484375 C189.60007812 229.56203125 189.48921875 230.6396875 189.375 231.75 C189.20097656 233.35101563 189.20097656 233.35101563 189.0234375 234.984375 C188.998864 238.14616576 189.11099013 239.49596367 191 242 C193.38522941 243.55445267 193.38522941 243.55445267 196.125 244.75 C197.03507812 245.17796875 197.94515625 245.6059375 198.8828125 246.046875 C199.58148437 246.36140625 200.28015625 246.6759375 201 247 C200.31911019 249.91985181 199.41898766 252.35122304 198 255 C197.01 255 196.02 255 195 255 C195 255.99 195 256.98 195 258 C194.34 258 193.68 258 193 258 C194.1446875 259.0828125 194.1446875 259.0828125 195.3125 260.1875 C198.59103552 263.61852554 201 266.14910037 201 271 C199.97845825 271.2945105 199.97845825 271.2945105 198.9362793 271.5949707 C195.8503341 272.49077139 192.76897294 273.40143989 189.6875 274.3125 C188.0797168 274.7755957 188.0797168 274.7755957 186.43945312 275.24804688 C184.89741211 275.70727539 184.89741211 275.70727539 183.32421875 276.17578125 C182.37635498 276.45333252 181.42849121 276.73088379 180.4519043 277.0168457 C177.23895402 278.30516102 175.58436676 279.74778551 174.125 282.875 C172.26794877 286.38276343 169.20694627 288.83181221 166.37304688 291.57470703 C164.64005918 293.25360089 162.91374096 294.93917271 161.1875 296.625 C160.59001953 297.19734375 159.99253906 297.7696875 159.37695312 298.359375 C157.86043859 299.84989214 156.42338872 301.42030945 155 303 C155 303.99 155 304.98 155 306 C154.18402344 306.11021484 154.18402344 306.11021484 153.3515625 306.22265625 C150.08044868 307.30397129 148.00142133 309.22521788 145.375 311.4375 C144.41335938 312.24058594 143.45171875 313.04367187 142.4609375 313.87109375 C140.92858918 315.19669666 139.43270975 316.56729025 138 318 C131.64601864 322.34805074 125.03143829 326.16861553 118.21484375 329.73828125 C115.89079949 330.93293329 115.89079949 330.93293329 114 333 C111.43295808 334.29419917 108.82878205 335.48725757 106.21484375 336.68359375 C103.68273194 337.86189693 103.68273194 337.86189693 103 341 C102.0925 341.103125 101.185 341.20625 100.25 341.3125 C96.94184965 342.01230104 95.5536718 342.90234102 93 345 C92.34 345 91.68 345 91 345 C91.05800781 345.86238281 91.11601562 346.72476562 91.17578125 347.61328125 C91.9906817 369.66215913 82.71813101 389.78076536 71.46875 408.27734375 C69.76261131 410.92446044 69.76261131 410.92446044 70 414 C69.01 414.66 68.02 415.32 67 416 C67.556875 416.8765625 68.11375 417.753125 68.6875 418.65625 C73.68266924 426.83687225 77.3963184 435.0924841 80.4375 444.1875 C80.9315332 445.64542969 80.9315332 445.64542969 81.43554688 447.1328125 C85.14243052 458.66361966 86.3071377 470.01303758 86.1953125 482.08203125 C86.19106766 483.85231941 86.19106766 483.85231941 86.18673706 485.65837097 C86.17566622 489.37652329 86.15058698 493.09442221 86.125 496.8125 C86.11495325 499.3548142 86.10583039 501.89713222 86.09765625 504.43945312 C86.07577 510.62638651 86.04242592 516.81317514 86 523 C86.66 523 87.32 523 88 523 C90 525 90 525 90.875 526.875 C91.94336781 529.15709576 91.94336781 529.15709576 94.125 531.0625 C96 533 96 533 96 536 C90.06 535.67 84.12 535.34 78 535 C78.99 537.64 79.98 540.28 81 543 C81 543.99 81 544.98 81 546 C76.08030327 545.12715058 71.29139348 544.11533758 66.50390625 542.68359375 C65.71161621 542.44922607 64.91932617 542.2148584 64.10302734 541.97338867 C62.50941133 541.49614143 60.91968885 541.00566748 59.33447266 540.5012207 C54.77833937 539.13981424 54.77833937 539.13981424 50.125 539.7265625 C47.55590387 541.26613113 45.32388255 543.1157709 43 545 C42.34 545 41.68 545 41 545 C40.67 545.99 40.34 546.98 40 548 C38.02 547.67 36.04 547.34 34 547 C34 546.34 34 545.68 34 545 C34.66 545 35.32 545 36 545 C35.814375 543.906875 35.62875 542.81375 35.4375 541.6875 C35 538 35 538 36 535 C35.34 535 34.68 535 34 535 C33.91911133 534.38721191 33.83822266 533.77442383 33.75488281 533.14306641 C33.18961348 530.87602726 33.18961348 530.87602726 31.22167969 529.75146484 C30.46274414 529.40809082 29.70380859 529.0647168 28.921875 528.7109375 C28.09042969 528.32679688 27.25898438 527.94265625 26.40234375 527.546875 C25.52707031 527.16015625 24.65179688 526.7734375 23.75 526.375 C22.89019531 525.98054687 22.03039062 525.58609375 21.14453125 525.1796875 C17.13562998 523.35128261 13.11406935 521.58102665 9 520 C9 519.34 9 518.68 9 518 C7.96552734 517.62681641 7.96552734 517.62681641 6.91015625 517.24609375 C-4.89035258 512.19325842 -16.22756319 503.22064534 -24.2109375 493.234375 C-25.80623683 490.92243529 -25.80623683 490.92243529 -28 490 C-29.05482257 488.24005148 -30.04632617 486.44174865 -31 484.625 C-32.57535054 481.63971073 -34.12601701 478.81097449 -36 476 C-36 475.01 -36 474.02 -36 473 C-36.81976318 473.17128418 -37.63952637 473.34256836 -38.48413086 473.51904297 C-61.11532647 478.22084569 -82.85425847 481.2451475 -106 482 C-106 481.34 -106 480.68 -106 480 C-107.08539063 480.02320313 -108.17078125 480.04640625 -109.2890625 480.0703125 C-110.73436807 480.0890827 -112.17968115 480.10728156 -113.625 480.125 C-114.33785156 480.14175781 -115.05070313 480.15851563 -115.78515625 480.17578125 C-120.30914208 480.21728571 -123.71452373 479.59303044 -128 478 C-130.70553172 477.35219663 -133.40968276 476.72768817 -136.125 476.125 C-142.35768893 474.70857172 -148.37067799 473.01730799 -154.38671875 470.83203125 C-157.24038448 469.92346503 -160.03949525 469.42912148 -163 469 C-163 468.34 -163 467.68 -163 467 C-163.54527344 466.88140625 -164.09054688 466.7628125 -164.65234375 466.640625 C-173.40451435 464.2523455 -181.78584057 459.79985722 -190 456 C-190.58007812 456.53109375 -191.16015625 457.0621875 -191.7578125 457.609375 C-198.92459944 464.09023184 -198.92459944 464.09023184 -202.5 466.375 C-205.09022556 467.75861732 -205.09022556 467.75861732 -206 470 C-207.64656172 470.94089241 -209.29593972 471.87728709 -210.9609375 472.78515625 C-213.87302751 474.52013708 -216.46749156 476.60826714 -219.10546875 478.73046875 C-221.10829464 480.07256857 -222.66345448 480.49964884 -225 481 C-227.72981832 482.35400645 -227.72981832 482.35400645 -230 484 C-230 484.66 -230 485.32 -230 486 C-230.99 486 -231.98 486 -233 486 C-233.2475 486.61875 -233.495 487.2375 -233.75 487.875 C-235.20628639 490.35068687 -236.37812506 490.95125002 -239 492 C-240.10228696 487.59085217 -240.07654536 483.51617599 -240 479 C-241.00160156 479.144375 -242.00320312 479.28875 -243.03515625 479.4375 C-244.37756922 479.62525007 -245.72001915 479.81273594 -247.0625 480 C-248.04766602 480.14308594 -248.04766602 480.14308594 -249.05273438 480.2890625 C-253.40138763 480.88887674 -257.61329071 481.09127093 -262 481 C-262.495 479.515 -262.495 479.515 -263 478 C-262.34 478 -261.68 478 -261 478 C-260.34 476.02 -259.68 474.04 -259 472 C-259.33 471.67 -259.66 471.34 -260 471 C-260 471.33 -260 471.66 -260 472 C-262.31 472 -264.62 472 -267 472 C-267 471.34 -267 470.68 -267 470 C-268.32 470.66 -269.64 471.32 -271 472 C-271.33 470.68 -271.66 469.36 -272 468 C-270.515 466.99839844 -270.515 466.99839844 -269 465.9765625 C-266.27430506 463.6821687 -266.03567464 463.28348597 -265.5625 459.5234375 C-265.67700304 458.13767893 -265.82543759 456.75448024 -266 455.375 C-266.06815918 454.61227783 -266.13631836 453.84955566 -266.20654297 453.0637207 C-266.36069769 451.34390045 -266.52804453 449.62522984 -266.70605469 447.90771484 C-267.14984072 443.51777159 -267.50365209 439.12191609 -267.84765625 434.72314453 C-268.02793287 432.42493499 -268.21999389 430.1276088 -268.42578125 427.83154297 C-269.25604386 417.70143672 -268.78357992 407.92525189 -266.6015625 397.9921875 C-265.60019919 393.01138039 -264.86403739 387.9856779 -264.12792969 382.95947266 C-263.49620406 378.73491171 -262.67474342 374.82708987 -261.375 370.75 C-260.11161746 364.88138434 -263.50028919 359.95784587 -266.10546875 354.8984375 C-269.64536638 347.90981344 -272.36644834 339.88596825 -272 332 C-272.66 331.67 -273.32 331.34 -274 331 C-274.4140625 328.05859375 -274.4140625 328.05859375 -274.625 324.4375 C-274.69976562 323.23996094 -274.77453125 322.04242188 -274.8515625 320.80859375 C-274.90054688 319.88175781 -274.94953125 318.95492188 -275 318 C-275.66 318 -276.32 318 -277 318 C-276.74633667 316.95380493 -276.74633667 316.95380493 -276.48754883 315.88647461 C-275.57271655 310.47031937 -276.3039785 305.01542601 -276.6875 299.5625 C-276.75388672 298.34755859 -276.82027344 297.13261719 -276.88867188 295.88085938 C-277.34418923 289.33503917 -277.778234 285.07607229 -282 280 C-282.68679942 277.67251306 -283.35761043 275.34013344 -284 273 C-284.66 272.67 -285.32 272.34 -286 272 C-286.640625 270.1640625 -286.640625 270.1640625 -287.25 267.625 C-288.69184554 261.99882954 -290.37201516 256.47263821 -292.125 250.9375 C-292.52380371 249.6693042 -292.52380371 249.6693042 -292.93066406 248.37548828 C-294.24634002 244.1008005 -294.24634002 244.1008005 -296 240 C-296.039992 238.00039988 -296.04346799 235.99952758 -296 234 C-296.66 234 -297.32 234 -298 234 C-297.97679687 233.40574219 -297.95359375 232.81148437 -297.9296875 232.19921875 C-297.8294065 227.59345579 -298.02822333 223.38486497 -299 218.875 C-300.14966431 213.31030538 -300.12256781 207.95729264 -299.92578125 202.30615234 C-299.88082765 200.53783319 -299.93321825 198.76762939 -300 197 C-300.66 196.34 -301.32 195.68 -302 195 C-304.33333333 192.66666667 -306.66666667 190.33333333 -309 188 C-309 187.01 -309 186.02 -309 185 C-303.375 182 -303.375 182 -300 182 C-300.31710937 181.44828125 -300.63421875 180.8965625 -300.9609375 180.328125 C-302.12709975 177.71522011 -302.40045711 175.59420998 -302.625 172.75 C-302.69976562 171.85796875 -302.77453125 170.9659375 -302.8515625 170.046875 C-302.90054687 169.37140625 -302.94953125 168.6959375 -303 168 C-302.34 168.33 -301.68 168.66 -301 169 C-300.505 167.02 -300.505 167.02 -300 165 C-296.12867972 165.57352893 -293.91827204 167.48704352 -291 170 C-287.26186655 168.56225637 -285.08879419 166.15150125 -282.46484375 163.2421875 C-281 162 -281 162 -278 162 C-277.87625 162.79664063 -277.7525 163.59328125 -277.625 164.4140625 C-276.29293266 171.81945167 -276.29293266 171.81945167 -271.4375 177.1875 C-270.74269531 177.61675781 -270.04789062 178.04601562 -269.33203125 178.48828125 C-265.53145616 180.95197063 -262.39643568 184.15133124 -259.1015625 187.2421875 C-257.2009485 189.2138619 -257.2009485 189.2138619 -255 189 C-252.47536576 183.88550291 -251.66427935 180.50760653 -252.0390625 174.69921875 C-252.07954208 174.00116623 -252.12002167 173.30311371 -252.16172791 172.58390808 C-252.29955241 170.28372827 -252.46187914 167.98601316 -252.625 165.6875 C-252.72775784 164.07120696 -252.82921312 162.45483065 -252.92944336 160.83837891 C-253.20467559 156.48425748 -253.5032246 152.13202809 -253.80743408 147.77984619 C-254.00542085 144.92174567 -254.19675081 142.06326635 -254.38623047 139.20458984 C-254.76944158 133.42743654 -255.16290943 127.6510423 -255.5625 121.875 C-255.6261676 120.94819427 -255.68983521 120.02138855 -255.75543213 119.0664978 C-255.9378755 116.43721329 -256.12608707 113.80841232 -256.31640625 111.1796875 C-256.37054184 110.39385788 -256.42467743 109.60802826 -256.48045349 108.79838562 C-256.71188198 105.6776352 -257.0058096 102.98257121 -258 100 C-258.04475618 98.50066785 -258.0389479 96.99949427 -258 95.5 C-257.93453802 89.95209717 -258.41311585 84.51251894 -259 79 C-259.33 79 -259.66 79 -260 79 C-259.97679687 77.98808594 -259.95359375 76.97617188 -259.9296875 75.93359375 C-259.76809753 65.06948701 -260.24139398 54.27528004 -260.9375 43.4375 C-260.98106628 42.73825409 -261.02463257 42.03900818 -261.06951904 41.318573 C-261.12274385 33.94267654 -261.12274385 33.94267654 -263 27 C-263.04531014 25.58405811 -263.03853449 24.16614248 -263 22.75 C-262.96094916 20.02078009 -263.04632065 17.75810327 -263.5625 15.0625 C-264.19545381 10.63182333 -263.56760162 6.41856027 -263 2 C-259.74792908 3.41738489 -257.68638933 5.12526412 -255.25 7.6875 C-252.73734486 10.32156495 -250.14235067 12.75691038 -247.37890625 15.12109375 C-241.23955978 20.44324054 -235.65583212 26.33594228 -229.98242188 32.14453125 C-228.69754883 33.44583984 -228.69754883 33.44583984 -227.38671875 34.7734375 C-226.61545654 35.56153809 -225.84419434 36.34963867 -225.04956055 37.16162109 C-223.04298317 39.20680791 -223.04298317 39.20680791 -220 40 C-218.46801758 41.54882813 -218.46801758 41.54882813 -216.83203125 43.53125 C-212.98204127 48.0651663 -208.8937604 52.29706809 -204.6875 56.5 C-203.94129395 57.24757568 -203.19508789 57.99515137 -202.42626953 58.76538086 C-197.85327984 63.29818698 -193.23035408 67.41367551 -188.0859375 71.28515625 C-185.1246009 73.7196633 -182.76392557 76.54509304 -180.375 79.53125 C-179.92125 80.0159375 -179.4675 80.500625 -179 81 C-178.34 81 -177.68 81 -177 81 C-176.51789063 79.89140625 -176.03578125 78.7828125 -175.5390625 77.640625 C-174.90109778 76.17705887 -174.26307384 74.71351856 -173.625 73.25 C-173.30789062 72.52039063 -172.99078125 71.79078125 -172.6640625 71.0390625 C-172.3546875 70.33007812 -172.0453125 69.62109375 -171.7265625 68.890625 C-171.44377441 68.24125977 -171.16098633 67.59189453 -170.86962891 66.92285156 C-169.96414074 64.92071098 -168.98259767 62.96519534 -168 61 C-167.29738915 59.29782579 -166.61036761 57.58914941 -165.9375 55.875 C-164.00396215 50.95724712 -161.62869026 46.57900884 -159 42 C-158.01 42 -157.02 42 -156 42 C-155.52949219 43.12019531 -155.05898437 44.24039063 -154.57421875 45.39453125 C-153.94569133 46.86734923 -153.31676412 48.33999663 -152.6875 49.8125 C-152.37876953 50.55048828 -152.07003906 51.28847656 -151.75195312 52.04882812 C-151.44580078 52.76103516 -151.13964844 53.47324219 -150.82421875 54.20703125 C-150.40789185 55.18893433 -150.40789185 55.18893433 -149.9831543 56.19067383 C-148.90725076 58.17068901 -147.59175341 59.42364445 -146 61 C-145.66666667 62.66666667 -145.33333333 64.33333333 -145 66 C-143.77449884 68.72446127 -142.40590309 71.3647491 -141 74 C-140.01 72.515 -140.01 72.515 -139 71 C-138.34 70.195625 -137.68 69.39125 -137 68.5625 C-135.01298758 66.19078303 -135.01298758 66.19078303 -134 64 C-132.67460323 61.34920646 -130.88962716 59.27866804 -129 57 C-128.29875 56.071875 -127.5975 55.14375 -126.875 54.1875 C-126.25625 53.465625 -125.6375 52.74375 -125 52 C-124.34 52 -123.68 52 -123 52 C-122.19831609 54.9248248 -121.75496333 57.74838136 -121.46484375 60.765625 C-121.37783203 61.65507813 -121.29082031 62.54453125 -121.20117188 63.4609375 C-121.11416016 64.38132812 -121.02714844 65.30171875 -120.9375 66.25 C-120.84662109 67.18585938 -120.75574219 68.12171875 -120.66210938 69.0859375 C-120.43871957 71.39037967 -120.21811272 73.69505337 -120 76 C-119.401875 75.175 -118.80375 74.35 -118.1875 73.5 C-117.465625 72.675 -116.74375 71.85 -116 71 C-115.01 71 -114.02 71 -113 71 C-112.67 71.66 -112.34 72.32 -112 73 C-111.2575 72.319375 -110.515 71.63875 -109.75 70.9375 C-107 69 -107 69 -104.6875 69.25 C-104.130625 69.4975 -103.57375 69.745 -103 70 C-103 70.66 -103 71.32 -103 72 C-102.51789063 71.6390625 -102.03578125 71.278125 -101.5390625 70.90625 C-100.90742188 70.4421875 -100.27578125 69.978125 -99.625 69.5 C-98.99851563 69.0359375 -98.37203125 68.571875 -97.7265625 68.09375 C-96 67 -96 67 -94 67 C-93.67 66.01 -93.34 65.02 -93 64 C-90.3828125 62.28125 -90.3828125 62.28125 -87.125 60.5 C-83.6191834 58.57391281 -80.74225021 56.89717961 -78 54 C-76.60493848 53.01047962 -75.18610582 52.05394957 -73.75 51.125 C-66.51486254 46.51889595 -66.51486254 46.51889595 -60 41 C-58.76439438 40.14546901 -57.51155161 39.31574014 -56.25 38.5 C-53.23799781 36.5247555 -50.27954538 34.4958715 -47.36328125 32.3828125 C-46.42210449 31.7012207 -46.42210449 31.7012207 -45.46191406 31.00585938 C-44.2045374 30.09175624 -42.9499278 29.17383368 -41.69824219 28.25195312 C-37.21871411 25 -37.21871411 25 -35 25 C-35 24.34 -35 23.68 -35 23 C-34.02933594 22.47148438 -33.05867188 21.94296875 -32.05859375 21.3984375 C-27.49534775 18.7892292 -23.29891581 15.7281299 -19.0625 12.625 C-18.30259766 12.07328125 -17.54269531 11.5215625 -16.75976562 10.953125 C-13.72549977 8.74544395 -10.69732619 6.53603681 -7.72216797 4.24902344 C-6.65119873 3.4257959 -6.65119873 3.4257959 -5.55859375 2.5859375 C-4.60231079 1.84029541 -4.60231079 1.84029541 -3.62670898 1.07958984 C-2 0 -2 0 0 0 Z M-105 71 C-104.67 71.99 -104.34 72.98 -104 74 C-104 73.01 -104 72.02 -104 71 C-104.33 71 -104.66 71 -105 71 Z M-216 201 C-225.78054588 211.56298955 -225.46883954 225.73099858 -225.4375 239.25 C-225.43754028 239.99431274 -225.43758057 240.73862549 -225.43762207 241.50549316 C-225.76501884 250.5841944 -225.76501884 250.5841944 -223 259 C-222.79117188 260.39025391 -222.79117188 260.39025391 -222.578125 261.80859375 C-221.89634797 265.57218722 -220.46892508 268.68682373 -218.75 272.0625 C-218.31880859 272.9606543 -218.31880859 272.9606543 -217.87890625 273.87695312 C-215.82265084 277.97599502 -213.5084874 281.04460217 -210 284 C-209.01 284 -208.02 284 -207 284 C-207 284.66 -207 285.32 -207 286 C-200.13737696 289.94600825 -194.71282183 290.58152806 -187.125 288.9375 C-178.03645862 286.40971352 -171.79004897 282.32180796 -166 275 C-166.30067383 274.52393311 -166.60134766 274.04786621 -166.91113281 273.55737305 C-167.82667853 272.107759 -168.74220382 270.65813205 -169.65771484 269.20849609 C-170.73081047 267.50951029 -171.80405579 265.81061902 -172.87744141 264.11181641 C-175.67435984 259.68478715 -178.46899475 255.25635625 -181.2578125 250.82421875 C-181.78084961 249.9938208 -182.30388672 249.16342285 -182.84277344 248.30786133 C-183.8339516 246.73407382 -184.8242459 245.15972916 -185.81347656 243.5847168 C-186.73265987 242.12613155 -187.65637019 240.67038767 -188.58496094 239.21777344 C-189.59494759 237.6348337 -190.59156262 236.04332947 -191.57910156 234.44628906 C-192.10213867 233.6209668 -192.62517578 232.79564453 -193.1640625 231.9453125 C-193.63537598 231.19008301 -194.10668945 230.43485352 -194.59228516 229.65673828 C-195.05683105 229.11001465 -195.52137695 228.56329102 -196 228 C-196.99 228 -197.98 228 -199 228 C-198.67 227.01 -198.34 226.02 -198 225 C-199.26078409 222.46481633 -199.26078409 222.46481633 -201.125 219.8125 C-201.77082031 218.83925781 -202.41664063 217.86601562 -203.08203125 216.86328125 C-203.71496094 215.91839844 -204.34789062 214.97351563 -205 214 C-205.94428954 212.50426489 -206.88279233 211.00484215 -207.8125 209.5 C-210.57709063 205.00312454 -210.57709063 205.00312454 -214 201 C-214.66 201 -215.32 201 -216 201 Z M-9.25 226.375 C-10.69954303 227.47784888 -12.15008324 228.57938818 -13.6015625 229.6796875 C-14.70226074 230.5145166 -14.70226074 230.5145166 -15.82519531 231.36621094 C-19.05666548 233.79380393 -22.33301977 236.15538451 -25.625 238.5 C-26.17961914 238.89622559 -26.73423828 239.29245117 -27.30566406 239.70068359 C-29.92675164 241.56345409 -32.56391655 243.36069125 -35.2734375 245.09375 C-38.18492851 246.88297268 -38.18492851 246.88297268 -40 250 C-41.31600193 250.70025791 -42.654095 251.35909286 -44 252 C-46.27532267 253.47291419 -48.51810039 254.96464928 -50.75 256.5 C-51.35199219 256.90347656 -51.95398438 257.30695313 -52.57421875 257.72265625 C-54.08722202 258.76220271 -55.54872163 259.87588843 -57 261 C-57 261.66 -57 262.32 -57 263 C-58.10601562 263.39445312 -58.10601562 263.39445312 -59.234375 263.796875 C-62.00964587 265.00419623 -63.92178305 266.33568828 -66.25 268.25 C-69.97192296 271.23124177 -73.7911558 273.90551286 -77.78125 276.51171875 C-81.29293785 278.86726993 -84.64793797 281.42430111 -88 284 C-84.63174585 292.73764752 -80.39518545 299.39087858 -72 304 C-56.19243277 310.25015513 -39.90011357 309.09819073 -24.42578125 302.46875 C-13.25467004 296.97078453 -5.55370228 290.58374009 1 280 C2.0828125 278.576875 2.0828125 278.576875 3.1875 277.125 C10.5565882 264.41967551 9.22088976 248.9419088 5.59936523 235.26489258 C4.18957627 230.2704533 2.3864691 225.60247612 0 221 C-3.64807323 221 -6.44217093 224.21040001 -9.25 226.375 Z M-297 230 C-296 233 -296 233 -296 233 Z M-82 245 C-84.29623701 248.81712126 -85.93100481 252.67218918 -87 257 C-86.67 257.66 -86.34 258.32 -86 259 C-77.60822843 249.30635495 -77.60822843 249.30635495 -70 239 C-74.57041417 239 -78.64764734 242.14156764 -82 245 Z M178 256 C179 258 179 258 179 258 Z M-221 301 C-221.09490399 305.84010365 -220.99988877 310.25052836 -220 315 C-220.02449219 316.06605469 -220.04898438 317.13210938 -220.07421875 318.23046875 C-219.88684493 327.7470866 -215.89995693 343.10004307 -209 350 C-208.979375 348.700625 -208.95875 347.40125 -208.9375 346.0625 C-208.92589844 345.33160156 -208.91429687 344.60070312 -208.90234375 343.84765625 C-208.79438816 341.98267859 -208.79438816 341.98267859 -210 341 C-210.07485606 339.65165517 -210.08321352 338.29948101 -210.0625 336.94921875 C-210.05355713 336.11084473 -210.04461426 335.2724707 -210.03540039 334.40869141 C-210.02371826 333.51069824 -210.01203613 332.61270508 -210 331.6875 C-209.99393972 328.95455732 -209.99605542 326.221715 -209.99951172 323.48876953 C-209.99992202 321.39744182 -209.98776349 319.30611694 -209.97265625 317.21484375 C-210.06937727 311.74097671 -210.06937727 311.74097671 -212.51953125 307.015625 C-214.27631846 305.46225526 -215.99840451 304.21494224 -218 303 C-218.99 302.34 -219.98 301.68 -221 301 Z M-208 312 C-208.02715383 313.74991334 -208.04646551 315.49994945 -208.0625 317.25 C-208.07410156 318.22453125 -208.08570313 319.1990625 -208.09765625 320.203125 C-208.10455216 322.88490885 -208.10455216 322.88490885 -207.49609375 324.95703125 C-206.55710163 328.82390429 -206.98915818 332.85271931 -207.0625 336.80859375 C-207.09752326 339.91910761 -207.09752326 339.91910761 -206.47265625 342.58984375 C-205.94787811 345.26577858 -206.17498086 347.41903343 -206.4375 350.125 C-206.46721361 357.54349716 -202.6585404 361.5674252 -198 367 C-197.0472978 368.1727104 -196.09687398 369.34727449 -195.1484375 370.5234375 C-183.72430446 384.49310459 -168.92550113 396.63524043 -151 401 C-148.74816902 401.78644348 -146.49842899 402.57888244 -144.25 403.375 C-116.88983598 412.59628973 -85.4305705 411.52335669 -59.25 398.8125 C-55.99121731 397.05133749 -55.99121731 397.05133749 -53 395 C-50.95022264 393.7336029 -48.89604904 392.47468172 -46.83984375 391.21875 C-44.86708405 389.9997531 -44.86708405 389.9997531 -43 388 C-41.57071793 386.88521615 -40.13204161 385.78243827 -38.6875 384.6875 C-35.18625191 381.97685631 -31.93755404 379.31659327 -29 376 C-29 375.34 -29 374.68 -29 374 C-28.34 374 -27.68 374 -27 374 C-14.35922295 359.5136695 -5.77550062 341.3487405 -5 322 C-10.20620941 323.58015941 -14.98427019 325.77945556 -19.875 328.125 C-22.55625 329.40375 -25.2375 330.6825 -28 332 C-27.67 342.89 -27.34 353.78 -27 365 C-27.66 365 -28.32 365 -29 365 C-29.96288008 354.3051534 -30.10947633 343.72867997 -30 333 C-30.58676514 333.25692627 -31.17353027 333.51385254 -31.77807617 333.77856445 C-45.1199636 339.53315196 -57.46482184 343.45993519 -71.9831543 344.64038086 C-74.26688795 345.04758818 -75.98106103 345.87786334 -78 347 C-78 347.85464844 -78 348.70929688 -78 349.58984375 C-78 353.05989583 -78 356.52994792 -78 360 C-77.92851442 362.87634408 -77.85544955 365.7526318 -77.78125 368.62890625 C-77.75905396 369.49313705 -77.73685791 370.35736786 -77.71398926 371.24778748 C-77.64277926 374.01936141 -77.57139145 376.79093073 -77.5 379.5625 C-77.45181124 381.43684866 -77.40363401 383.31119761 -77.35546875 385.18554688 C-77.23711307 389.79036804 -77.11859788 394.39518507 -77 399 C-77.66 398.67 -78.32 398.34 -79 398 C-80.14884407 375.50587763 -80.14884407 375.50587763 -79.9375 364.58203125 C-79.87662896 361.88148263 -79.87662896 361.88148263 -81 359 C-81.06937062 356.77181559 -81.08457084 354.54165476 -81.0625 352.3125 C-81.05347656 351.13300781 -81.04445313 349.95351563 -81.03515625 348.73828125 C-81.02355469 347.83464844 -81.01195312 346.93101562 -81 346 C-81.84175781 346.02320313 -82.68351562 346.04640625 -83.55078125 346.0703125 C-95.9841772 346.251068 -108.29585348 345.28834933 -120.68115234 344.26220703 C-122.9457221 344.08329369 -125.21187474 343.92363063 -127.47900391 343.78076172 C-133.27842386 343.40352997 -138.44787495 342.82805586 -144 341 C-145.30001919 340.68747284 -146.60373524 340.39005137 -147.91015625 340.10546875 C-159.76590758 337.49277565 -170.85032209 333.84463335 -182 329 C-181.38649456 345.33581522 -180.72994446 361.66895959 -180 378 C-180.66 378 -181.32 378 -182 378 C-182.02505615 377.33468262 -182.0501123 376.66936523 -182.07592773 375.98388672 C-182.19251136 372.94742513 -182.31495351 369.91122654 -182.4375 366.875 C-182.47681641 365.82828125 -182.51613281 364.7815625 -182.55664062 363.703125 C-182.76222611 358.70581633 -183.14691864 353.93210066 -184 349 C-184.06423386 345.53940097 -183.99943086 342.09319953 -183.9375 338.6328125 C-183.958125 337.43398438 -183.97875 336.23515625 -184 335 C-183.98501465 334.33162109 -183.9700293 333.66324219 -183.95458984 332.97460938 C-184.06014528 329.81543247 -184.28370888 327.77935329 -186.46972656 325.40087891 C-188.45513001 323.87344735 -190.4846873 322.55097439 -192.625 321.25 C-193.32496094 320.79496094 -194.02492188 320.33992188 -194.74609375 319.87109375 C-199.07210358 317.08607443 -203.51514641 314.51905162 -208 312 Z M35 532 C36 534 36 534 36 534 Z " fill="#000000" transform="translate(322,25)"/>
<path d="M0 0 C0.66 0 1.32 0 2 0 C2.39252444 2.37326315 2.76427274 4.74687214 3.125 7.125 C3.23714844 7.79015625 3.34929687 8.4553125 3.46484375 9.140625 C4.13081723 13.6692447 3.77089679 16.78920097 2 21 C-0.45747464 18.54252536 -0.5801489 17.4201354 -1 14 C-0.91677268 11.55956012 -0.76716726 9.12076631 -0.5625 6.6875 C-0.46066406 5.43324219 -0.35882813 4.17898438 -0.25390625 2.88671875 C-0.17011719 1.93410156 -0.08632812 0.98148437 0 0 Z " fill="#000000" transform="translate(187,404)"/>
<path d="M0 0 C6.93 0.33 13.86 0.66 21 1 C21 1.33 21 1.66 21 2 C13.74 2 6.48 2 -1 2 C-0.67 1.34 -0.34 0.68 0 0 Z " fill="#040404" transform="translate(475,257)"/>
<path d="M0 0 C0.33 0 0.66 0 1 0 C1 3.96 1 7.92 1 12 C0.67 12 0.34 12 0 12 C0 8.04 0 4.08 0 0 Z " fill="#010101" transform="translate(409,524)"/>
<path d="M0 0 C0.33 0 0.66 0 1 0 C1 3.96 1 7.92 1 12 C0.67 12 0.34 12 0 12 C0 8.04 0 4.08 0 0 Z " fill="#010101" transform="translate(409,496)"/>
<path d="M0 0 C0 0.33 0 0.66 0 1 C-3.63 1 -7.26 1 -11 1 C-6.8204355 -1.78637633 -4.85331323 -0.79562512 0 0 Z " fill="#030303" transform="translate(275,331)"/>
<path d="M0 0 C0.33 0 0.66 0 1 0 C1 2.97 1 5.94 1 9 C0.67 9 0.34 9 0 9 C0 6.03 0 3.06 0 0 Z " fill="#000000" transform="translate(143,393)"/>
<path d="M0 0 C0.33 0 0.66 0 1 0 C1.625 2.875 1.625 2.875 2 6 C1.34 6.66 0.68 7.32 0 8 C0 5.36 0 2.72 0 0 Z " fill="#000000" transform="translate(296,380)"/>
<path d="M0 0 C0.33 0 0.66 0 1 0 C1 2.97 1 5.94 1 9 C0.67 9 0.34 9 0 9 C0 6.03 0 3.06 0 0 Z " fill="#000000" transform="translate(324,84)"/>
<path d="M0 0 C0.33 0 0.66 0 1 0 C1 2.64 1 5.28 1 8 C0.67 8 0.34 8 0 8 C0 5.36 0 2.72 0 0 Z " fill="#030303" transform="translate(117,373)"/>
<path d="M0 0 C2.64 0 5.28 0 8 0 C8 0.33 8 0.66 8 1 C5.36 1 2.72 1 0 1 C0 0.67 0 0.34 0 0 Z " fill="#000000" transform="translate(230,372)"/>
<path d="M0 0 C0.33 0 0.66 0 1 0 C1 2.64 1 5.28 1 8 C0.67 8 0.34 8 0 8 C0 5.36 0 2.72 0 0 Z " fill="#020202" transform="translate(67,173)"/>
<path d="M0 0 C0.33 0 0.66 0 1 0 C1 2.31 1 4.62 1 7 C0.67 7 0.34 7 0 7 C0 4.69 0 2.38 0 0 Z " fill="#000000" transform="translate(414,374)"/>
<path d="M0 0 C0.33 0 0.66 0 1 0 C1 1.98 1 3.96 1 6 C-0.0625 4.125 -0.0625 4.125 -1 2 C-0.67 1.34 -0.34 0.68 0 0 Z " fill="#050505" transform="translate(110,352)"/>
<path d="M0 0 C0.33 0 0.66 0 1 0 C1 1.98 1 3.96 1 6 C0.67 6 0.34 6 0 6 C0 4.02 0 2.04 0 0 Z " fill="#030303" transform="translate(54,470)"/>
<path d="M0 0 C0.33 0.66 0.66 1.32 1 2 C-0.65 2 -2.3 2 -4 2 C-2.68 1.34 -1.36 0.68 0 0 Z " fill="#020202" transform="translate(462,258)"/>
<path d="M0 0 C0.33 0 0.66 0 1 0 C1 1.98 1 3.96 1 6 C0.67 6 0.34 6 0 6 C0 4.02 0 2.04 0 0 Z " fill="#040404" transform="translate(59,58)"/>
<path d="M0 0 C0.33 0 0.66 0 1 0 C1 1.98 1 3.96 1 6 C0.67 6 0.34 6 0 6 C0 4.02 0 2.04 0 0 Z " fill="#020202" transform="translate(323,26)"/>
<path d="M0 0 C1.65 0 3.3 0 5 0 C5 0.33 5 0.66 5 1 C3.35 1 1.7 1 0 1 C0 0.67 0 0.34 0 0 Z " fill="#020202" transform="translate(406,561)"/>
<path d="M0 0 C1.65 0 3.3 0 5 0 C5 0.33 5 0.66 5 1 C3.35 1 1.7 1 0 1 C0 0.67 0 0.34 0 0 Z " fill="#010101" transform="translate(75,505)"/>
<path d="M0 0 C0.33 0 0.66 0 1 0 C1 1.65 1 3.3 1 5 C0.67 5 0.34 5 0 5 C0 3.35 0 1.7 0 0 Z " fill="#060606" transform="translate(137,384)"/>
<path d="M0 0 C1.65 0 3.3 0 5 0 C5 0.33 5 0.66 5 1 C3.35 1 1.7 1 0 1 C0 0.67 0 0.34 0 0 Z " fill="#000000" transform="translate(216,372)"/>
<path d="M0 0 C0.66 0 1.32 0 2 0 C1.67 0.99 1.34 1.98 1 3 C0.67 2.01 0.34 1.02 0 0 Z " fill="#020202" transform="translate(21,242)"/>
<path d="M0 0 C0.33 0 0.66 0 1 0 C1 1.65 1 3.3 1 5 C0.67 5 0.34 5 0 5 C0 3.35 0 1.7 0 0 Z " fill="#010101" transform="translate(65,144)"/>
<path d="M0 0 C4 1 4 1 4 1 Z " fill="#020202" transform="translate(202,505)"/>
<path d="M0 0 C4 1 4 1 4 1 Z " fill="#000000" transform="translate(256,504)"/>
<path d="M0 0 C4 1 4 1 4 1 Z " fill="#030303" transform="translate(256,370)"/>
<path d="M0 0 C0.99 0.495 0.99 0.495 2 1 C1.34 1.66 0.68 2.32 0 3 C0 2.01 0 1.02 0 0 Z " fill="#020202" transform="translate(103,343)"/>
<path d="M0 0 C1 4 1 4 1 4 Z " fill="#030303" transform="translate(43,317)"/>
<path d="M0 0 C4 1 4 1 4 1 Z " fill="#020202" transform="translate(440,261)"/>
<path d="M0 0 C1 4 1 4 1 4 Z " fill="#010101" transform="translate(98,247)"/>
<path d="M0 0 C0.66 0.33 1.32 0.66 2 1 C1.01 1 0.02 1 -1 1 C-0.67 0.67 -0.34 0.34 0 0 Z " fill="#020202" transform="translate(368,91)"/>
<path d="M0 0 C0.33 0.99 0.66 1.98 1 3 C0.34 2.67 -0.32 2.34 -1 2 C-0.67 1.34 -0.34 0.68 0 0 Z " fill="#020202" transform="translate(58,45)"/>
<path d="" fill="#000000" transform="translate(0,0)"/>
<path d="M0 0 C3 1 3 1 3 1 Z " fill="#020202" transform="translate(244,428)"/>
<path d="M0 0 C0.66 0.66 1.32 1.32 2 2 C1.34 2 0.68 2 0 2 C0 1.34 0 0.68 0 0 Z " fill="#000000" transform="translate(406,408)"/>
<path d="" fill="#040404" transform="translate(0,0)"/>
<path d="M0 0 C3 1 3 1 3 1 Z " fill="#020202" transform="translate(194,370)"/>
<path d="M0 0 C0.66 0.66 1.32 1.32 2 2 C1.34 2 0.68 2 0 2 C0 1.34 0 0.68 0 0 Z " fill="#020202" transform="translate(239,274)"/>
<path d="" fill="#030303" transform="translate(0,0)"/>
<path d="M0 0 C0.33 0.66 0.66 1.32 1 2 C0.34 1.67 -0.32 1.34 -1 1 C-0.67 0.67 -0.34 0.34 0 0 Z " fill="#010101" transform="translate(494,72)"/>
<path d="" fill="#080808" transform="translate(0,0)"/>
<path d="M0 0 C2 1 2 1 2 1 Z " fill="#030303" transform="translate(366,575)"/>
<path d="" fill="#030303" transform="translate(0,0)"/>
<path d="M0 0 C2 1 2 1 2 1 Z " fill="#010101" transform="translate(373,564)"/>
<path d="" fill="#010101" transform="translate(0,0)"/>
<path d="M0 0 C2 1 2 1 2 1 Z " fill="#020202" transform="translate(347,553)"/>
<path d="" fill="#010101" transform="translate(0,0)"/>
<path d="M0 0 C2 1 2 1 2 1 Z " fill="#010101" transform="translate(61,507)"/>
<path d="M0 0 C2 1 2 1 2 1 Z " fill="#010101" transform="translate(267,502)"/>
<path d="M0 0 C2 1 2 1 2 1 Z " fill="#000000" transform="translate(187,502)"/>
<path d="M0 0 C2 1 2 1 2 1 Z " fill="#010101" transform="translate(175,499)"/>
<path d="M0 0 C2 1 2 1 2 1 Z " fill="#000000" transform="translate(61,498)"/>
<path d="M0 0 C2 1 2 1 2 1 Z " fill="#020202" transform="translate(169,497)"/>
<path d="M0 0 C2 1 2 1 2 1 Z " fill="#030303" transform="translate(153,491)"/>
<path d="" fill="#000000" transform="translate(0,0)"/>
<path d="" fill="#010101" transform="translate(0,0)"/>
<path d="M0 0 C2 1 2 1 2 1 Z " fill="#020202" transform="translate(182,428)"/>
<path d="M0 0 C2 1 2 1 2 1 Z " fill="#020202" transform="translate(173,425)"/>
<path d="" fill="#010101" transform="translate(0,0)"/>
<path d="M0 0 C2 1 2 1 2 1 Z " fill="#010101" transform="translate(165,422)"/>
<path d="" fill="#020202" transform="translate(0,0)"/>
<path d="" fill="#000000" transform="translate(0,0)"/>
<path d="" fill="#010101" transform="translate(0,0)"/>
<path d="" fill="#000000" transform="translate(0,0)"/>
<path d="" fill="#020202" transform="translate(0,0)"/>
<path d="" fill="#010101" transform="translate(0,0)"/>
<path d="" fill="#090909" transform="translate(0,0)"/>
<path d="" fill="#030303" transform="translate(0,0)"/>
<path d="" fill="#030303" transform="translate(0,0)"/>
<path d="M0 0 C2 1 2 1 2 1 Z " fill="#020202" transform="translate(50,369)"/>
<path d="M0 0 C2 1 2 1 2 1 Z " fill="#010101" transform="translate(271,367)"/>
<path d="M0 0 C2 1 2 1 2 1 Z " fill="#010101" transform="translate(176,367)"/>
<path d="" fill="#010101" transform="translate(0,0)"/>
<path d="M0 0 C2 1 2 1 2 1 Z " fill="#020202" transform="translate(166,365)"/>
<path d="M0 0 C2 1 2 1 2 1 Z " fill="#030303" transform="translate(282,363)"/>
<path d="M0 0 C2 1 2 1 2 1 Z " fill="#030303" transform="translate(156,362)"/>
<path d="" fill="#000000" transform="translate(0,0)"/>
<path d="" fill="#060606" transform="translate(0,0)"/>
<path d="" fill="#020202" transform="translate(0,0)"/>
<path d="" fill="#000000" transform="translate(0,0)"/>
<path d="" fill="#050505" transform="translate(0,0)"/>
<path d="" fill="#010101" transform="translate(0,0)"/>
<path d="" fill="#020202" transform="translate(0,0)"/>
<path d="M0 0 C2 1 2 1 2 1 Z " fill="#040404" transform="translate(276,331)"/>
<path d="M0 0 C2 1 2 1 2 1 Z " fill="#010101" transform="translate(104,330)"/>
<path d="M0 0 C2 1 2 1 2 1 Z " fill="#050505" transform="translate(301,323)"/>
<path d="" fill="#030303" transform="translate(0,0)"/>
<path d="M0 0 C2 1 2 1 2 1 Z " fill="#010101" transform="translate(121,312)"/>
<path d="M0 0 C2 1 2 1 2 1 Z " fill="#030303" transform="translate(236,311)"/>
<path d="M0 0 C2 1 2 1 2 1 Z " fill="#020202" transform="translate(112,304)"/>
<path d="M0 0 C2 1 2 1 2 1 Z " fill="#020202" transform="translate(510,300)"/>
<path d="M0 0 C2 1 2 1 2 1 Z " fill="#010101" transform="translate(32,299)"/>
<path d="M0 0 C2 1 2 1 2 1 Z " fill="#000000" transform="translate(516,298)"/>
<path d="" fill="#010101" transform="translate(0,0)"/>
<path d="M0 0 C2 1 2 1 2 1 Z " fill="#010101" transform="translate(109,298)"/>
<path d="M0 0 C2 1 2 1 2 1 Z " fill="#000000" transform="translate(144,288)"/>
<path d="M0 0 C2 1 2 1 2 1 Z " fill="#030303" transform="translate(272,285)"/>
<path d="" fill="#010101" transform="translate(0,0)"/>
<path d="" fill="#000000" transform="translate(0,0)"/>
<path d="" fill="#030303" transform="translate(0,0)"/>
<path d="M0 0 C2 1 2 1 2 1 Z " fill="#010101" transform="translate(99,267)"/>
<path d="" fill="#010101" transform="translate(0,0)"/>
<path d="M0 0 C2 1 2 1 2 1 Z " fill="#000000" transform="translate(426,264)"/>
<path d="M0 0 C2 1 2 1 2 1 Z " fill="#010101" transform="translate(128,260)"/>
<path d="M0 0 C2 1 2 1 2 1 Z " fill="#060606" transform="translate(497,258)"/>
<path d="M0 0 C2 1 2 1 2 1 Z " fill="#010101" transform="translate(121,250)"/>
<path d="M0 0 C2 1 2 1 2 1 Z " fill="#030303" transform="translate(112,235)"/>
<path d="" fill="#030303" transform="translate(0,0)"/>
<path d="" fill="#030303" transform="translate(0,0)"/>
<path d="" fill="#020202" transform="translate(0,0)"/>
<path d="M0 0 C2 1 2 1 2 1 Z " fill="#020202" transform="translate(63,204)"/>
<path d="" fill="#060606" transform="translate(0,0)"/>
<path d="M0 0 C2 1 2 1 2 1 Z " fill="#000000" transform="translate(37,188)"/>
<path d="" fill="#010101" transform="translate(0,0)"/>
<path d="M0 0 C2 1 2 1 2 1 Z " fill="#020202" transform="translate(369,121)"/>
<path d="" fill="#030303" transform="translate(0,0)"/>
<path d="" fill="#000000" transform="translate(0,0)"/>
<path d="M0 0 C2 1 2 1 2 1 Z " fill="#010101" transform="translate(389,113)"/>
<path d="" fill="#010101" transform="translate(0,0)"/>
<path d="M0 0 C2 1 2 1 2 1 Z " fill="#020202" transform="translate(410,105)"/>
<path d="M0 0 C2 1 2 1 2 1 Z " fill="#010101" transform="translate(334,105)"/>
<path d="M0 0 C2 1 2 1 2 1 Z " fill="#000000" transform="translate(418,102)"/>
<path d="M0 0 C2 1 2 1 2 1 Z " fill="#030303" transform="translate(423,100)"/>
<path d="M0 0 C2 1 2 1 2 1 Z " fill="#010101" transform="translate(139,98)"/>
<path d="M0 0 C2 1 2 1 2 1 Z " fill="#010101" transform="translate(431,97)"/>
<path d="M0 0 C2 1 2 1 2 1 Z " fill="#000000" transform="translate(203,97)"/>
<path d="" fill="#020202" transform="translate(0,0)"/>
<path d="M0 0 C2 1 2 1 2 1 Z " fill="#030303" transform="translate(178,92)"/>
<path d="" fill="#010101" transform="translate(0,0)"/>
<path d="" fill="#000000" transform="translate(0,0)"/>
<path d="M0 0 C2 1 2 1 2 1 Z " fill="#010101" transform="translate(451,89)"/>
<path d="" fill="#020202" transform="translate(0,0)"/>
<path d="" fill="#020202" transform="translate(0,0)"/>
<path d="M0 0 C2 1 2 1 2 1 Z " fill="#000000" transform="translate(480,78)"/>
<path d="M0 0 C2 1 2 1 2 1 Z " fill="#030303" transform="translate(497,71)"/>
<path d="M0 0 C2 1 2 1 2 1 Z " fill="#030303" transform="translate(79,41)"/>
<path d="" fill="#030303" transform="translate(0,0)"/>
<path d="" fill="#040404" transform="translate(0,0)"/>
<path d="" fill="#070707" transform="translate(0,0)"/>
<path d="" fill="#000000" transform="translate(0,0)"/>
<path d="" fill="#010101" transform="translate(0,0)"/>
<path d="" fill="#010101" transform="translate(0,0)"/>
<path d="" fill="#020202" transform="translate(0,0)"/>
<path d="" fill="#010101" transform="translate(0,0)"/>
<path d="" fill="#020202" transform="translate(0,0)"/>
<path d="" fill="#020202" transform="translate(0,0)"/>
<path d="" fill="#020202" transform="translate(0,0)"/>
<path d="" fill="#010101" transform="translate(0,0)"/>
<path d="" fill="#020202" transform="translate(0,0)"/>
<path d="" fill="#020202" transform="translate(0,0)"/>
<path d="" fill="#020202" transform="translate(0,0)"/>
<path d="" fill="#020202" transform="translate(0,0)"/>
<path d="" fill="#010101" transform="translate(0,0)"/>
<path d="" fill="#020202" transform="translate(0,0)"/>
<path d="" fill="#050505" transform="translate(0,0)"/>
<path d="" fill="#040404" transform="translate(0,0)"/>
<path d="" fill="#030303" transform="translate(0,0)"/>
<path d="" fill="#020202" transform="translate(0,0)"/>
<path d="" fill="#010101" transform="translate(0,0)"/>
<path d="" fill="#050505" transform="translate(0,0)"/>
<path d="" fill="#090909" transform="translate(0,0)"/>
<path d="" fill="#010101" transform="translate(0,0)"/>
<path d="" fill="#010101" transform="translate(0,0)"/>
<path d="" fill="#060606" transform="translate(0,0)"/>
<path d="" fill="#010101" transform="translate(0,0)"/>
<path d="" fill="#020202" transform="translate(0,0)"/>
<path d="" fill="#020202" transform="translate(0,0)"/>
<path d="" fill="#020202" transform="translate(0,0)"/>
<path d="" fill="#010101" transform="translate(0,0)"/>
<path d="" fill="#010101" transform="translate(0,0)"/>
<path d="" fill="#010101" transform="translate(0,0)"/>
<path d="" fill="#020202" transform="translate(0,0)"/>
<path d="" fill="#010101" transform="translate(0,0)"/>
<path d="" fill="#020202" transform="translate(0,0)"/>
<path d="" fill="#020202" transform="translate(0,0)"/>
<path d="" fill="#010101" transform="translate(0,0)"/>
<path d="" fill="#030303" transform="translate(0,0)"/>
<path d="" fill="#020202" transform="translate(0,0)"/>
<path d="" fill="#040404" transform="translate(0,0)"/>
<path d="" fill="#020202" transform="translate(0,0)"/>
<path d="" fill="#040404" transform="translate(0,0)"/>
<path d="" fill="#030303" transform="translate(0,0)"/>
<path d="" fill="#020202" transform="translate(0,0)"/>
<path d="" fill="#020202" transform="translate(0,0)"/>
<path d="" fill="#000000" transform="translate(0,0)"/>
<path d="" fill="#010101" transform="translate(0,0)"/>
<path d="" fill="#010101" transform="translate(0,0)"/>
<path d="" fill="#010101" transform="translate(0,0)"/>
<path d="" fill="#020202" transform="translate(0,0)"/>
<path d="" fill="#020202" transform="translate(0,0)"/>
<path d="" fill="#030303" transform="translate(0,0)"/>
<path d="" fill="#010101" transform="translate(0,0)"/>
<path d="" fill="#030303" transform="translate(0,0)"/>
<path d="" fill="#020202" transform="translate(0,0)"/>
<path d="" fill="#010101" transform="translate(0,0)"/>
<path d="" fill="#010101" transform="translate(0,0)"/>
<path d="" fill="#010101" transform="translate(0,0)"/>
<path d="" fill="#020202" transform="translate(0,0)"/>
<path d="" fill="#030303" transform="translate(0,0)"/>
<path d="" fill="#030303" transform="translate(0,0)"/>
<path d="" fill="#030303" transform="translate(0,0)"/>
<path d="" fill="#030303" transform="translate(0,0)"/>
<path d="" fill="#010101" transform="translate(0,0)"/>
<path d="" fill="#010101" transform="translate(0,0)"/>
<path d="" fill="#000000" transform="translate(0,0)"/>
<path d="" fill="#010101" transform="translate(0,0)"/>
<path d="" fill="#000000" transform="translate(0,0)"/>
<path d="" fill="#010101" transform="translate(0,0)"/>
<path d="" fill="#030303" transform="translate(0,0)"/>
<path d="" fill="#010101" transform="translate(0,0)"/>
<path d="" fill="#020202" transform="translate(0,0)"/>
<path d="" fill="#010101" transform="translate(0,0)"/>
<path d="" fill="#020202" transform="translate(0,0)"/>
<path d="" fill="#010101" transform="translate(0,0)"/>
<path d="" fill="#010101" transform="translate(0,0)"/>
<path d="" fill="#020202" transform="translate(0,0)"/>
<path d="" fill="#030303" transform="translate(0,0)"/>
<path d="" fill="#020202" transform="translate(0,0)"/>
<path d="" fill="#020202" transform="translate(0,0)"/>
<path d="" fill="#010101" transform="translate(0,0)"/>
<path d="" fill="#010101" transform="translate(0,0)"/>
<path d="" fill="#010101" transform="translate(0,0)"/>
<path d="" fill="#090909" transform="translate(0,0)"/>
<path d="" fill="#010101" transform="translate(0,0)"/>
<path d="" fill="#010101" transform="translate(0,0)"/>
<path d="" fill="#010101" transform="translate(0,0)"/>
<path d="" fill="#010101" transform="translate(0,0)"/>
<path d="" fill="#000000" transform="translate(0,0)"/>
<path d="" fill="#000000" transform="translate(0,0)"/>
<path d="" fill="#020202" transform="translate(0,0)"/>
<path d="" fill="#020202" transform="translate(0,0)"/>
<path d="" fill="#030303" transform="translate(0,0)"/>
<path d="" fill="#030303" transform="translate(0,0)"/>
<path d="" fill="#030303" transform="translate(0,0)"/>
<path d="" fill="#020202" transform="translate(0,0)"/>
<path d="" fill="#020202" transform="translate(0,0)"/>
<path d="" fill="#020202" transform="translate(0,0)"/>
<path d="" fill="#010101" transform="translate(0,0)"/>
<path d="" fill="#030303" transform="translate(0,0)"/>
<path d="" fill="#010101" transform="translate(0,0)"/>
<path d="" fill="#010101" transform="translate(0,0)"/>
<path d="" fill="#010101" transform="translate(0,0)"/>
<path d="" fill="#010101" transform="translate(0,0)"/>
<path d="" fill="#010101" transform="translate(0,0)"/>
<path d="" fill="#020202" transform="translate(0,0)"/>
<path d="" fill="#010101" transform="translate(0,0)"/>
<path d="" fill="#050505" transform="translate(0,0)"/>
<path d="" fill="#010101" transform="translate(0,0)"/>
<path d="" fill="#020202" transform="translate(0,0)"/>
<path d="" fill="#020202" transform="translate(0,0)"/>
<path d="" fill="#020202" transform="translate(0,0)"/>
<path d="" fill="#020202" transform="translate(0,0)"/>
<path d="" fill="#010101" transform="translate(0,0)"/>
<path d="" fill="#020202" transform="translate(0,0)"/>
<path d="" fill="#020202" transform="translate(0,0)"/>
<path d="" fill="#020202" transform="translate(0,0)"/>
<path d="" fill="#020202" transform="translate(0,0)"/>
<path d="" fill="#020202" transform="translate(0,0)"/>
<path d="" fill="#000000" transform="translate(0,0)"/>
<path d="" fill="#020202" transform="translate(0,0)"/>
<path d="" fill="#020202" transform="translate(0,0)"/>
<path d="" fill="#030303" transform="translate(0,0)"/>
<path d="" fill="#020202" transform="translate(0,0)"/>
<path d="" fill="#020202" transform="translate(0,0)"/>
<path d="" fill="#000000" transform="translate(0,0)"/>
<path d="" fill="#010101" transform="translate(0,0)"/>
<path d="" fill="#010101" transform="translate(0,0)"/>
<path d="" fill="#030303" transform="translate(0,0)"/>
<path d="" fill="#020202" transform="translate(0,0)"/>
<path d="" fill="#030303" transform="translate(0,0)"/>
<path d="" fill="#000000" transform="translate(0,0)"/>
<path d="" fill="#030303" transform="translate(0,0)"/>
<path d="" fill="#030303" transform="translate(0,0)"/>
<path d="" fill="#020202" transform="translate(0,0)"/>
<path d="" fill="#030303" transform="translate(0,0)"/>
<path d="" fill="#020202" transform="translate(0,0)"/>
<path d="" fill="#030303" transform="translate(0,0)"/>
<path d="" fill="#020202" transform="translate(0,0)"/>
<path d="" fill="#010101" transform="translate(0,0)"/>
<path d="" fill="#000000" transform="translate(0,0)"/>
<path d="" fill="#020202" transform="translate(0,0)"/>
<path d="" fill="#020202" transform="translate(0,0)"/>
<path d="" fill="#030303" transform="translate(0,0)"/>
<path d="" fill="#020202" transform="translate(0,0)"/>
<path d="" fill="#030303" transform="translate(0,0)"/>
<path d="" fill="#000000" transform="translate(0,0)"/>
<path d="" fill="#010101" transform="translate(0,0)"/>
<path d="" fill="#010101" transform="translate(0,0)"/>
<path d="" fill="#020202" transform="translate(0,0)"/>
<path d="" fill="#060606" transform="translate(0,0)"/>
<path d="" fill="#040404" transform="translate(0,0)"/>
<path d="" fill="#020202" transform="translate(0,0)"/>
<path d="" fill="#010101" transform="translate(0,0)"/>
<path d="" fill="#020202" transform="translate(0,0)"/>
<path d="" fill="#040404" transform="translate(0,0)"/>
<path d="" fill="#020202" transform="translate(0,0)"/>
<path d="" fill="#020202" transform="translate(0,0)"/>
<path d="" fill="#020202" transform="translate(0,0)"/>
<path d="" fill="#030303" transform="translate(0,0)"/>
<path d="" fill="#010101" transform="translate(0,0)"/>
<path d="" fill="#000000" transform="translate(0,0)"/>
<path d="" fill="#010101" transform="translate(0,0)"/>
<path d="" fill="#020202" transform="translate(0,0)"/>
<path d="" fill="#020202" transform="translate(0,0)"/>
<path d="" fill="#020202" transform="translate(0,0)"/>
<path d="" fill="#050505" transform="translate(0,0)"/>
<path d="" fill="#020202" transform="translate(0,0)"/>
<path d="" fill="#060606" transform="translate(0,0)"/>
<path d="" fill="#030303" transform="translate(0,0)"/>
<path d="" fill="#020202" transform="translate(0,0)"/>
<path d="" fill="#020202" transform="translate(0,0)"/>
<path d="" fill="#040404" transform="translate(0,0)"/>
<path d="" fill="#030303" transform="translate(0,0)"/>
<path d="" fill="#000000" transform="translate(0,0)"/>
<path d="" fill="#010101" transform="translate(0,0)"/>
<path d="" fill="#030303" transform="translate(0,0)"/>
<path d="" fill="#010101" transform="translate(0,0)"/>
<path d="" fill="#020202" transform="translate(0,0)"/>
<path d="" fill="#010101" transform="translate(0,0)"/>
<path d="" fill="#020202" transform="translate(0,0)"/>
<path d="" fill="#010101" transform="translate(0,0)"/>
<path d="" fill="#020202" transform="translate(0,0)"/>
<path d="" fill="#020202" transform="translate(0,0)"/>
<path d="" fill="#010101" transform="translate(0,0)"/>
<path d="" fill="#010101" transform="translate(0,0)"/>
<path d="" fill="#000000" transform="translate(0,0)"/>
<path d="" fill="#010101" transform="translate(0,0)"/>
<path d="" fill="#010101" transform="translate(0,0)"/>
<path d="" fill="#090909" transform="translate(0,0)"/>
<path d="" fill="#020202" transform="translate(0,0)"/>
<path d="" fill="#010101" transform="translate(0,0)"/>
<path d="" fill="#010101" transform="translate(0,0)"/>
<path d="" fill="#000000" transform="translate(0,0)"/>
<path d="" fill="#020202" transform="translate(0,0)"/>
<path d="" fill="#030303" transform="translate(0,0)"/>
<path d="" fill="#030303" transform="translate(0,0)"/>
<path d="" fill="#030303" transform="translate(0,0)"/>
<path d="" fill="#030303" transform="translate(0,0)"/>
<path d="" fill="#020202" transform="translate(0,0)"/>
<path d="" fill="#040404" transform="translate(0,0)"/>
<path d="" fill="#020202" transform="translate(0,0)"/>
<path d="" fill="#030303" transform="translate(0,0)"/>
<path d="" fill="#030303" transform="translate(0,0)"/>
<path d="" fill="#030303" transform="translate(0,0)"/>
<path d="" fill="#020202" transform="translate(0,0)"/>
<path d="" fill="#010101" transform="translate(0,0)"/>
<path d="" fill="#030303" transform="translate(0,0)"/>
<path d="" fill="#030303" transform="translate(0,0)"/>
<path d="" fill="#010101" transform="translate(0,0)"/>
<path d="" fill="#030303" transform="translate(0,0)"/>
<path d="" fill="#020202" transform="translate(0,0)"/>
<path d="" fill="#030303" transform="translate(0,0)"/>
<path d="" fill="#040404" transform="translate(0,0)"/>
<path d="" fill="#060606" transform="translate(0,0)"/>
<path d="" fill="#010101" transform="translate(0,0)"/>
<path d="" fill="#050505" transform="translate(0,0)"/>
<path d="" fill="#020202" transform="translate(0,0)"/>
<path d="" fill="#020202" transform="translate(0,0)"/>
<path d="" fill="#020202" transform="translate(0,0)"/>
<path d="" fill="#020202" transform="translate(0,0)"/>
<path d="" fill="#030303" transform="translate(0,0)"/>
<path d="" fill="#010101" transform="translate(0,0)"/>
<path d="" fill="#020202" transform="translate(0,0)"/>
<path d="" fill="#020202" transform="translate(0,0)"/>
<path d="" fill="#030303" transform="translate(0,0)"/>
<path d="" fill="#020202" transform="translate(0,0)"/>
<path d="" fill="#010101" transform="translate(0,0)"/>
<path d="" fill="#000000" transform="translate(0,0)"/>
<path d="" fill="#030303" transform="translate(0,0)"/>
<path d="" fill="#050505" transform="translate(0,0)"/>
<path d="" fill="#040404" transform="translate(0,0)"/>
<path d="" fill="#050505" transform="translate(0,0)"/>
<path d="" fill="#060606" transform="translate(0,0)"/>
<path d="" fill="#020202" transform="translate(0,0)"/>
<path d="" fill="#030303" transform="translate(0,0)"/>
<path d="" fill="#000000" transform="translate(0,0)"/>
<path d="" fill="#010101" transform="translate(0,0)"/>
<path d="" fill="#010101" transform="translate(0,0)"/>
<path d="" fill="#020202" transform="translate(0,0)"/>
<path d="" fill="#020202" transform="translate(0,0)"/>
<path d="" fill="#030303" transform="translate(0,0)"/>
<path d="" fill="#030303" transform="translate(0,0)"/>
<path d="" fill="#010101" transform="translate(0,0)"/>
<path d="" fill="#010101" transform="translate(0,0)"/>
<path d="" fill="#040404" transform="translate(0,0)"/>
<path d="" fill="#070707" transform="translate(0,0)"/>
<path d="" fill="#020202" transform="translate(0,0)"/>
<path d="" fill="#020202" transform="translate(0,0)"/>
<path d="" fill="#050505" transform="translate(0,0)"/>
<path d="" fill="#020202" transform="translate(0,0)"/>
<path d="" fill="#040404" transform="translate(0,0)"/>
<path d="" fill="#010101" transform="translate(0,0)"/>
<path d="" fill="#010101" transform="translate(0,0)"/>
<path d="" fill="#030303" transform="translate(0,0)"/>
<path d="" fill="#030303" transform="translate(0,0)"/>
<path d="" fill="#010101" transform="translate(0,0)"/>
<path d="" fill="#030303" transform="translate(0,0)"/>
<path d="" fill="#040404" transform="translate(0,0)"/>
<path d="" fill="#020202" transform="translate(0,0)"/>
<path d="" fill="#020202" transform="translate(0,0)"/>
<path d="" fill="#030303" transform="translate(0,0)"/>
<path d="" fill="#020202" transform="translate(0,0)"/>
<path d="" fill="#010101" transform="translate(0,0)"/>
<path d="" fill="#030303" transform="translate(0,0)"/>
<path d="" fill="#040404" transform="translate(0,0)"/>
<path d="" fill="#020202" transform="translate(0,0)"/>
<path d="" fill="#010101" transform="translate(0,0)"/>
<path d="" fill="#040404" transform="translate(0,0)"/>
<path d="" fill="#030303" transform="translate(0,0)"/>
<path d="" fill="#020202" transform="translate(0,0)"/>
<path d="" fill="#030303" transform="translate(0,0)"/>
<path d="" fill="#030303" transform="translate(0,0)"/>
<path d="" fill="#030303" transform="translate(0,0)"/>
<path d="" fill="#030303" transform="translate(0,0)"/>
<path d="" fill="#030303" transform="translate(0,0)"/>
<path d="" fill="#030303" transform="translate(0,0)"/>
<path d="" fill="#030303" transform="translate(0,0)"/>
<path d="" fill="#010101" transform="translate(0,0)"/>
<path d="" fill="#040404" transform="translate(0,0)"/>
<path d="" fill="#030303" transform="translate(0,0)"/>
<path d="" fill="#020202" transform="translate(0,0)"/>
<path d="" fill="#040404" transform="translate(0,0)"/>
<path d="" fill="#020202" transform="translate(0,0)"/>
<path d="" fill="#050505" transform="translate(0,0)"/>
<path d="" fill="#020202" transform="translate(0,0)"/>
<path d="" fill="#030303" transform="translate(0,0)"/>
<path d="" fill="#060606" transform="translate(0,0)"/>
<path d="" fill="#030303" transform="translate(0,0)"/>
<path d="" fill="#030303" transform="translate(0,0)"/>
<path d="" fill="#020202" transform="translate(0,0)"/>
<path d="" fill="#020202" transform="translate(0,0)"/>
<path d="" fill="#010101" transform="translate(0,0)"/>
<path d="" fill="#030303" transform="translate(0,0)"/>
<path d="" fill="#030303" transform="translate(0,0)"/>
<path d="" fill="#040404" transform="translate(0,0)"/>
<path d="" fill="#020202" transform="translate(0,0)"/>
<path d="" fill="#020202" transform="translate(0,0)"/>
<path d="" fill="#020202" transform="translate(0,0)"/>
<path d="" fill="#050505" transform="translate(0,0)"/>
<path d="" fill="#010101" transform="translate(0,0)"/>
<path d="" fill="#020202" transform="translate(0,0)"/>
<path d="" fill="#020202" transform="translate(0,0)"/>
<path d="" fill="#030303" transform="translate(0,0)"/>
<path d="" fill="#030303" transform="translate(0,0)"/>
<path d="" fill="#020202" transform="translate(0,0)"/>
<path d="" fill="#010101" transform="translate(0,0)"/>
<path d="" fill="#020202" transform="translate(0,0)"/>
<path d="" fill="#010101" transform="translate(0,0)"/>
<path d="" fill="#020202" transform="translate(0,0)"/>
<path d="" fill="#020202" transform="translate(0,0)"/>
<path d="" fill="#020202" transform="translate(0,0)"/>
<path d="" fill="#000000" transform="translate(0,0)"/>
<path d="" fill="#010101" transform="translate(0,0)"/>
<path d="" fill="#000000" transform="translate(0,0)"/>
<path d="" fill="#010101" transform="translate(0,0)"/>
<path d="" fill="#030303" transform="translate(0,0)"/>
<path d="" fill="#020202" transform="translate(0,0)"/>
<path d="" fill="#020202" transform="translate(0,0)"/>
<path d="" fill="#010101" transform="translate(0,0)"/>
<path d="" fill="#010101" transform="translate(0,0)"/>
<path d="" fill="#020202" transform="translate(0,0)"/>
<path d="" fill="#020202" transform="translate(0,0)"/>
<path d="" fill="#040404" transform="translate(0,0)"/>
<path d="" fill="#020202" transform="translate(0,0)"/>
<path d="" fill="#010101" transform="translate(0,0)"/>
<path d="" fill="#030303" transform="translate(0,0)"/>
<path d="" fill="#010101" transform="translate(0,0)"/>
<path d="" fill="#010101" transform="translate(0,0)"/>
<path d="" fill="#010101" transform="translate(0,0)"/>
<path d="" fill="#030303" transform="translate(0,0)"/>
<path d="" fill="#070707" transform="translate(0,0)"/>
<path d="" fill="#020202" transform="translate(0,0)"/>
<path d="" fill="#020202" transform="translate(0,0)"/>
<path d="" fill="#030303" transform="translate(0,0)"/>
<path d="" fill="#020202" transform="translate(0,0)"/>
<path d="" fill="#000000" transform="translate(0,0)"/>
<path d="" fill="#010101" transform="translate(0,0)"/>
<path d="" fill="#030303" transform="translate(0,0)"/>
<path d="" fill="#010101" transform="translate(0,0)"/>
<path d="" fill="#010101" transform="translate(0,0)"/>
<path d="" fill="#010101" transform="translate(0,0)"/>
<path d="" fill="#010101" transform="translate(0,0)"/>
<path d="" fill="#000000" transform="translate(0,0)"/>
<path d="" fill="#000000" transform="translate(0,0)"/>
<path d="" fill="#080808" transform="translate(0,0)"/>
<path d="" fill="#020202" transform="translate(0,0)"/>
<path d="" fill="#020202" transform="translate(0,0)"/>
<path d="" fill="#030303" transform="translate(0,0)"/>
<path d="" fill="#020202" transform="translate(0,0)"/>
<path d="" fill="#010101" transform="translate(0,0)"/>
<path d="" fill="#020202" transform="translate(0,0)"/>
<path d="" fill="#010101" transform="translate(0,0)"/>
<path d="" fill="#010101" transform="translate(0,0)"/>
<path d="" fill="#010101" transform="translate(0,0)"/>
<path d="" fill="#010101" transform="translate(0,0)"/>
<path d="" fill="#030303" transform="translate(0,0)"/>
<path d="" fill="#020202" transform="translate(0,0)"/>
<path d="" fill="#010101" transform="translate(0,0)"/>
<path d="" fill="#030303" transform="translate(0,0)"/>
<path d="" fill="#030303" transform="translate(0,0)"/>
<path d="" fill="#010101" transform="translate(0,0)"/>
<path d="" fill="#030303" transform="translate(0,0)"/>
<path d="" fill="#000000" transform="translate(0,0)"/>
<path d="" fill="#030303" transform="translate(0,0)"/>
<path d="" fill="#020202" transform="translate(0,0)"/>
<path d="" fill="#000000" transform="translate(0,0)"/>
<path d="" fill="#020202" transform="translate(0,0)"/>
<path d="" fill="#020202" transform="translate(0,0)"/>
<path d="" fill="#030303" transform="translate(0,0)"/>
<path d="" fill="#020202" transform="translate(0,0)"/>
<path d="" fill="#010101" transform="translate(0,0)"/>
<path d="" fill="#010101" transform="translate(0,0)"/>
<path d="" fill="#000000" transform="translate(0,0)"/>
<path d="" fill="#050505" transform="translate(0,0)"/>
<path d="" fill="#020202" transform="translate(0,0)"/>
<path d="" fill="#040404" transform="translate(0,0)"/>
<path d="" fill="#010101" transform="translate(0,0)"/>
<path d="" fill="#010101" transform="translate(0,0)"/>
<path d="" fill="#030303" transform="translate(0,0)"/>
<path d="" fill="#050505" transform="translate(0,0)"/>
<path d="" fill="#020202" transform="translate(0,0)"/>
<path d="" fill="#030303" transform="translate(0,0)"/>
<path d="" fill="#030303" transform="translate(0,0)"/>
<path d="" fill="#030303" transform="translate(0,0)"/>
<path d="" fill="#020202" transform="translate(0,0)"/>
<path d="" fill="#020202" transform="translate(0,0)"/>
<path d="" fill="#020202" transform="translate(0,0)"/>
<path d="" fill="#010101" transform="translate(0,0)"/>
<path d="" fill="#020202" transform="translate(0,0)"/>
<path d="" fill="#000000" transform="translate(0,0)"/>
<path d="" fill="#010101" transform="translate(0,0)"/>
<path d="" fill="#020202" transform="translate(0,0)"/>
<path d="" fill="#020202" transform="translate(0,0)"/>
<path d="" fill="#020202" transform="translate(0,0)"/>
<path d="" fill="#020202" transform="translate(0,0)"/>
<path d="" fill="#010101" transform="translate(0,0)"/>
<path d="" fill="#030303" transform="translate(0,0)"/>
<path d="" fill="#020202" transform="translate(0,0)"/>
<path d="" fill="#020202" transform="translate(0,0)"/>
<path d="" fill="#020202" transform="translate(0,0)"/>
<path d="" fill="#040404" transform="translate(0,0)"/>
<path d="" fill="#070707" transform="translate(0,0)"/>
<path d="" fill="#020202" transform="translate(0,0)"/>
<path d="" fill="#010101" transform="translate(0,0)"/>
<path d="" fill="#010101" transform="translate(0,0)"/>
<path d="" fill="#010101" transform="translate(0,0)"/>
<path d="" fill="#030303" transform="translate(0,0)"/>
<path d="" fill="#020202" transform="translate(0,0)"/>
<path d="" fill="#020202" transform="translate(0,0)"/>
<path d="" fill="#010101" transform="translate(0,0)"/>
<path d="" fill="#010101" transform="translate(0,0)"/>
<path d="" fill="#000000" transform="translate(0,0)"/>
<path d="" fill="#010101" transform="translate(0,0)"/>
<path d="" fill="#010101" transform="translate(0,0)"/>
<path d="" fill="#010101" transform="translate(0,0)"/>
<path d="" fill="#030303" transform="translate(0,0)"/>
<path d="" fill="#020202" transform="translate(0,0)"/>
<path d="" fill="#010101" transform="translate(0,0)"/>
<path d="" fill="#030303" transform="translate(0,0)"/>
<path d="" fill="#020202" transform="translate(0,0)"/>
<path d="" fill="#010101" transform="translate(0,0)"/>
<path d="" fill="#010101" transform="translate(0,0)"/>
<path d="" fill="#020202" transform="translate(0,0)"/>
<path d="" fill="#000000" transform="translate(0,0)"/>
<path d="" fill="#000000" transform="translate(0,0)"/>
<path d="" fill="#020202" transform="translate(0,0)"/>
<path d="" fill="#010101" transform="translate(0,0)"/>
<path d="" fill="#010101" transform="translate(0,0)"/>
<path d="" fill="#010101" transform="translate(0,0)"/>
<path d="" fill="#020202" transform="translate(0,0)"/>
<path d="" fill="#040404" transform="translate(0,0)"/>
<path d="" fill="#010101" transform="translate(0,0)"/>
<path d="" fill="#020202" transform="translate(0,0)"/>
<path d="" fill="#020202" transform="translate(0,0)"/>
<path d="" fill="#030303" transform="translate(0,0)"/>
<path d="" fill="#020202" transform="translate(0,0)"/>
<path d="" fill="#010101" transform="translate(0,0)"/>
<path d="" fill="#010101" transform="translate(0,0)"/>
<path d="" fill="#010101" transform="translate(0,0)"/>
<path d="" fill="#010101" transform="translate(0,0)"/>
<path d="" fill="#000000" transform="translate(0,0)"/>
<path d="" fill="#020202" transform="translate(0,0)"/>
<path d="" fill="#020202" transform="translate(0,0)"/>
<path d="" fill="#010101" transform="translate(0,0)"/>
<path d="" fill="#000000" transform="translate(0,0)"/>
<path d="" fill="#010101" transform="translate(0,0)"/>
<path d="" fill="#030303" transform="translate(0,0)"/>
<path d="" fill="#040404" transform="translate(0,0)"/>
<path d="" fill="#040404" transform="translate(0,0)"/>
<path d="" fill="#000000" transform="translate(0,0)"/>
<path d="" fill="#020202" transform="translate(0,0)"/>
<path d="" fill="#060606" transform="translate(0,0)"/>
<path d="" fill="#020202" transform="translate(0,0)"/>
<path d="" fill="#010101" transform="translate(0,0)"/>
<path d="" fill="#010101" transform="translate(0,0)"/>
<path d="" fill="#030303" transform="translate(0,0)"/>
<path d="" fill="#080808" transform="translate(0,0)"/>
<path d="" fill="#010101" transform="translate(0,0)"/>
<path d="" fill="#020202" transform="translate(0,0)"/>
<path d="" fill="#020202" transform="translate(0,0)"/>
<path d="" fill="#030303" transform="translate(0,0)"/>
<path d="" fill="#040404" transform="translate(0,0)"/>
<path d="" fill="#000000" transform="translate(0,0)"/>
<path d="" fill="#020202" transform="translate(0,0)"/>
<path d="" fill="#020202" transform="translate(0,0)"/>
<path d="" fill="#060606" transform="translate(0,0)"/>
<path d="" fill="#040404" transform="translate(0,0)"/>
<path d="" fill="#010101" transform="translate(0,0)"/>
<path d="" fill="#060606" transform="translate(0,0)"/>
<path d="" fill="#050505" transform="translate(0,0)"/>
<path d="" fill="#020202" transform="translate(0,0)"/>
<path d="" fill="#020202" transform="translate(0,0)"/>
<path d="" fill="#020202" transform="translate(0,0)"/>
<path d="" fill="#020202" transform="translate(0,0)"/>
<path d="" fill="#000000" transform="translate(0,0)"/>
<path d="" fill="#010101" transform="translate(0,0)"/>
<path d="" fill="#020202" transform="translate(0,0)"/>
<path d="" fill="#020202" transform="translate(0,0)"/>
<path d="" fill="#020202" transform="translate(0,0)"/>
<path d="" fill="#040404" transform="translate(0,0)"/>
<path d="" fill="#020202" transform="translate(0,0)"/>
<path d="" fill="#020202" transform="translate(0,0)"/>
<path d="" fill="#040404" transform="translate(0,0)"/>
<path d="" fill="#000000" transform="translate(0,0)"/>
<path d="" fill="#010101" transform="translate(0,0)"/>
<path d="" fill="#030303" transform="translate(0,0)"/>
<path d="" fill="#040404" transform="translate(0,0)"/>
<path d="" fill="#070707" transform="translate(0,0)"/>
<path d="" fill="#080808" transform="translate(0,0)"/>
<path d="" fill="#030303" transform="translate(0,0)"/>
<path d="" fill="#000000" transform="translate(0,0)"/>
<path d="" fill="#020202" transform="translate(0,0)"/>
<path d="" fill="#020202" transform="translate(0,0)"/>
<path d="" fill="#020202" transform="translate(0,0)"/>
<path d="" fill="#040404" transform="translate(0,0)"/>
<path d="" fill="#010101" transform="translate(0,0)"/>
<path d="" fill="#020202" transform="translate(0,0)"/>
<path d="" fill="#040404" transform="translate(0,0)"/>
<path d="" fill="#020202" transform="translate(0,0)"/>
<path d="" fill="#010101" transform="translate(0,0)"/>
<path d="" fill="#020202" transform="translate(0,0)"/>
<path d="" fill="#020202" transform="translate(0,0)"/>
<path d="" fill="#020202" transform="translate(0,0)"/>
<path d="" fill="#020202" transform="translate(0,0)"/>
<path d="" fill="#030303" transform="translate(0,0)"/>
<path d="" fill="#010101" transform="translate(0,0)"/>
<path d="" fill="#020202" transform="translate(0,0)"/>
<path d="" fill="#010101" transform="translate(0,0)"/>
<path d="" fill="#020202" transform="translate(0,0)"/>
<path d="" fill="#020202" transform="translate(0,0)"/>
<path d="" fill="#020202" transform="translate(0,0)"/>
<path d="" fill="#000000" transform="translate(0,0)"/>
<path d="" fill="#010101" transform="translate(0,0)"/>
<path d="" fill="#020202" transform="translate(0,0)"/>
<path d="" fill="#030303" transform="translate(0,0)"/>
<path d="" fill="#020202" transform="translate(0,0)"/>
<path d="" fill="#000000" transform="translate(0,0)"/>
<path d="" fill="#000000" transform="translate(0,0)"/>
<path d="" fill="#010101" transform="translate(0,0)"/>
<path d="" fill="#000000" transform="translate(0,0)"/>
<path d="" fill="#010101" transform="translate(0,0)"/>
<path d="" fill="#000000" transform="translate(0,0)"/>
<path d="" fill="#020202" transform="translate(0,0)"/>
<path d="" fill="#010101" transform="translate(0,0)"/>
<path d="" fill="#020202" transform="translate(0,0)"/>
<path d="" fill="#020202" transform="translate(0,0)"/>
<path d="" fill="#010101" transform="translate(0,0)"/>
<path d="" fill="#020202" transform="translate(0,0)"/>
<path d="" fill="#000000" transform="translate(0,0)"/>
<path d="" fill="#010101" transform="translate(0,0)"/>
<path d="" fill="#020202" transform="translate(0,0)"/>
<path d="" fill="#010101" transform="translate(0,0)"/>
<path d="" fill="#010101" transform="translate(0,0)"/>
<path d="" fill="#020202" transform="translate(0,0)"/>
<path d="" fill="#010101" transform="translate(0,0)"/>
<path d="" fill="#010101" transform="translate(0,0)"/>
<path d="" fill="#030303" transform="translate(0,0)"/>
<path d="" fill="#000000" transform="translate(0,0)"/>
<path d="" fill="#020202" transform="translate(0,0)"/>
<path d="" fill="#000000" transform="translate(0,0)"/>
<path d="" fill="#020202" transform="translate(0,0)"/>
<path d="" fill="#010101" transform="translate(0,0)"/>
<path d="" fill="#010101" transform="translate(0,0)"/>
<path d="" fill="#010101" transform="translate(0,0)"/>
<path d="" fill="#030303" transform="translate(0,0)"/>
<path d="" fill="#010101" transform="translate(0,0)"/>
<path d="" fill="#010101" transform="translate(0,0)"/>
<path d="" fill="#050505" transform="translate(0,0)"/>
<path d="" fill="#020202" transform="translate(0,0)"/>
<path d="" fill="#020202" transform="translate(0,0)"/>
<path d="" fill="#020202" transform="translate(0,0)"/>
<path d="" fill="#000000" transform="translate(0,0)"/>
<path d="" fill="#010101" transform="translate(0,0)"/>
<path d="" fill="#000000" transform="translate(0,0)"/>
<path d="" fill="#030303" transform="translate(0,0)"/>
<path d="" fill="#010101" transform="translate(0,0)"/>
<path d="" fill="#020202" transform="translate(0,0)"/>
<path d="" fill="#020202" transform="translate(0,0)"/>
<path d="" fill="#020202" transform="translate(0,0)"/>
<path d="" fill="#010101" transform="translate(0,0)"/>
<path d="" fill="#020202" transform="translate(0,0)"/>
<path d="" fill="#010101" transform="translate(0,0)"/>
<path d="" fill="#030303" transform="translate(0,0)"/>
<path d="" fill="#010101" transform="translate(0,0)"/>
<path d="" fill="#010101" transform="translate(0,0)"/>
<path d="" fill="#010101" transform="translate(0,0)"/>
<path d="" fill="#010101" transform="translate(0,0)"/>
<path d="" fill="#040404" transform="translate(0,0)"/>
<path d="" fill="#030303" transform="translate(0,0)"/>
<path d="" fill="#010101" transform="translate(0,0)"/>
<path d="" fill="#030303" transform="translate(0,0)"/>
<path d="" fill="#020202" transform="translate(0,0)"/>
<path d="" fill="#020202" transform="translate(0,0)"/>
<path d="" fill="#020202" transform="translate(0,0)"/>
<path d="" fill="#010101" transform="translate(0,0)"/>
<path d="" fill="#010101" transform="translate(0,0)"/>
<path d="" fill="#050505" transform="translate(0,0)"/>
<path d="" fill="#010101" transform="translate(0,0)"/>
<path d="" fill="#010101" transform="translate(0,0)"/>
<path d="" fill="#030303" transform="translate(0,0)"/>
<path d="" fill="#020202" transform="translate(0,0)"/>
<path d="" fill="#020202" transform="translate(0,0)"/>
<path d="" fill="#020202" transform="translate(0,0)"/>
<path d="" fill="#000000" transform="translate(0,0)"/>
<path d="" fill="#010101" transform="translate(0,0)"/>
<path d="" fill="#010101" transform="translate(0,0)"/>
<path d="" fill="#030303" transform="translate(0,0)"/>
<path d="" fill="#020202" transform="translate(0,0)"/>
<path d="" fill="#020202" transform="translate(0,0)"/>
<path d="" fill="#020202" transform="translate(0,0)"/>
<path d="" fill="#010101" transform="translate(0,0)"/>
<path d="" fill="#020202" transform="translate(0,0)"/>
<path d="" fill="#010101" transform="translate(0,0)"/>
<path d="" fill="#010101" transform="translate(0,0)"/>
<path d="" fill="#010101" transform="translate(0,0)"/>
<path d="" fill="#000000" transform="translate(0,0)"/>
<path d="" fill="#020202" transform="translate(0,0)"/>
<path d="" fill="#020202" transform="translate(0,0)"/>
<path d="" fill="#000000" transform="translate(0,0)"/>
<path d="" fill="#020202" transform="translate(0,0)"/>
<path d="" fill="#000000" transform="translate(0,0)"/>
<path d="" fill="#010101" transform="translate(0,0)"/>
<path d="" fill="#000000" transform="translate(0,0)"/>
<path d="" fill="#080808" transform="translate(0,0)"/>
<path d="" fill="#010101" transform="translate(0,0)"/>
<path d="" fill="#010101" transform="translate(0,0)"/>
<path d="" fill="#010101" transform="translate(0,0)"/>
<path d="" fill="#010101" transform="translate(0,0)"/>
<path d="" fill="#040404" transform="translate(0,0)"/>
<path d="" fill="#020202" transform="translate(0,0)"/>
<path d="" fill="#020202" transform="translate(0,0)"/>
<path d="" fill="#000000" transform="translate(0,0)"/>
<path d="" fill="#010101" transform="translate(0,0)"/>
<path d="" fill="#010101" transform="translate(0,0)"/>
<path d="" fill="#020202" transform="translate(0,0)"/>
<path d="" fill="#020202" transform="translate(0,0)"/>
<path d="" fill="#020202" transform="translate(0,0)"/>
<path d="" fill="#020202" transform="translate(0,0)"/>
<path d="" fill="#020202" transform="translate(0,0)"/>
<path d="" fill="#010101" transform="translate(0,0)"/>
<path d="" fill="#020202" transform="translate(0,0)"/>
<path d="" fill="#040404" transform="translate(0,0)"/>
<path d="" fill="#020202" transform="translate(0,0)"/>
<path d="" fill="#020202" transform="translate(0,0)"/>
<path d="" fill="#030303" transform="translate(0,0)"/>
<path d="" fill="#010101" transform="translate(0,0)"/>
<path d="" fill="#020202" transform="translate(0,0)"/>
<path d="" fill="#010101" transform="translate(0,0)"/>
<path d="" fill="#060606" transform="translate(0,0)"/>
<path d="" fill="#020202" transform="translate(0,0)"/>
<path d="" fill="#020202" transform="translate(0,0)"/>
<path d="" fill="#020202" transform="translate(0,0)"/>
<path d="" fill="#010101" transform="translate(0,0)"/>
<path d="" fill="#010101" transform="translate(0,0)"/>
<path d="" fill="#020202" transform="translate(0,0)"/>
<path d="" fill="#010101" transform="translate(0,0)"/>
<path d="" fill="#040404" transform="translate(0,0)"/>
<path d="" fill="#010101" transform="translate(0,0)"/>
<path d="" fill="#020202" transform="translate(0,0)"/>
<path d="" fill="#020202" transform="translate(0,0)"/>
<path d="" fill="#040404" transform="translate(0,0)"/>
<path d="" fill="#050505" transform="translate(0,0)"/>
<path d="" fill="#030303" transform="translate(0,0)"/>
<path d="" fill="#020202" transform="translate(0,0)"/>
<path d="" fill="#010101" transform="translate(0,0)"/>
<path d="" fill="#040404" transform="translate(0,0)"/>
<path d="" fill="#030303" transform="translate(0,0)"/>
<path d="" fill="#020202" transform="translate(0,0)"/>
<path d="" fill="#070707" transform="translate(0,0)"/>
<path d="" fill="#030303" transform="translate(0,0)"/>
<path d="" fill="#020202" transform="translate(0,0)"/>
<path d="" fill="#010101" transform="translate(0,0)"/>
<path d="" fill="#020202" transform="translate(0,0)"/>
<path d="" fill="#030303" transform="translate(0,0)"/>
<path d="" fill="#020202" transform="translate(0,0)"/>
<path d="" fill="#000000" transform="translate(0,0)"/>
<path d="" fill="#020202" transform="translate(0,0)"/>
<path d="" fill="#030303" transform="translate(0,0)"/>
<path d="" fill="#010101" transform="translate(0,0)"/>
<path d="" fill="#030303" transform="translate(0,0)"/>
<path d="" fill="#020202" transform="translate(0,0)"/>
<path d="" fill="#010101" transform="translate(0,0)"/>
<path d="" fill="#040404" transform="translate(0,0)"/>
<path d="" fill="#010101" transform="translate(0,0)"/>
<path d="" fill="#010101" transform="translate(0,0)"/>
<path d="" fill="#020202" transform="translate(0,0)"/>
<path d="" fill="#020202" transform="translate(0,0)"/>
<path d="" fill="#040404" transform="translate(0,0)"/>
<path d="" fill="#020202" transform="translate(0,0)"/>
<path d="" fill="#070707" transform="translate(0,0)"/>
<path d="" fill="#030303" transform="translate(0,0)"/>
<path d="" fill="#020202" transform="translate(0,0)"/>
<path d="" fill="#030303" transform="translate(0,0)"/>
<path d="" fill="#030303" transform="translate(0,0)"/>
<path d="" fill="#060606" transform="translate(0,0)"/>
<path d="" fill="#090909" transform="translate(0,0)"/>
<path d="" fill="#030303" transform="translate(0,0)"/>
<path d="" fill="#030303" transform="translate(0,0)"/>
<path d="" fill="#050505" transform="translate(0,0)"/>
<path d="" fill="#050505" transform="translate(0,0)"/>
</svg>
